<svg width="193" height="193" viewBox="0 0 193 193" fill="none" xmlns="http://www.w3.org/2000/svg">
<path opacity="0.3" d="M71.9382 32.2132C17.7039 34.4744 2.71511 70.3049 2 87.9375C2 104.359 4.74604 144.873 15.7302 175.562C29.4604 213.923 145.738 177.985 165.046 169.909C184.354 161.833 199.801 101.667 189.932 70.5741C180.064 39.4816 139.731 29.3866 71.9382 32.2132Z" fill="#739A00"/>
<path d="M84.7803 89.9062L84.841 88.2059L84.7803 89.9062ZM169.169 1.20759C168.417 0.643803 167.351 0.79615 166.787 1.54787L157.599 13.7978C157.036 14.5495 157.188 15.6159 157.94 16.1797C158.691 16.7435 159.758 16.5912 160.322 15.8395L168.488 4.95063L179.377 13.1173C180.129 13.681 181.195 13.5287 181.759 12.777C182.323 12.0253 182.17 10.9588 181.419 10.395L169.169 1.20759ZM8.64106 161.246C8.22005 160.29 7.81493 159.296 7.43028 158.271L4.24428 159.466C4.6511 160.551 5.08013 161.602 5.5268 162.617L8.64106 161.246ZM5.49544 152.123C4.97147 150.082 4.54327 147.966 4.23679 145.803L0.867679 146.281C1.19261 148.574 1.64594 150.812 2.19952 152.969L5.49544 152.123ZM3.71212 139.4C3.66834 137.28 3.75729 135.142 4.00031 133.01L0.619428 132.624C0.358057 134.918 0.263369 137.208 0.310083 139.47L3.71212 139.4ZM5.1847 126.752C5.72958 124.731 6.43635 122.734 7.3242 120.78L4.2262 119.372C3.2583 121.503 2.49008 123.675 1.89925 125.866L5.1847 126.752ZM10.4203 115.255C11.5714 113.555 12.8925 111.903 14.4002 110.314L11.9316 107.972C10.296 109.696 8.85814 111.493 7.60277 113.347L10.4203 115.255ZM19.1322 106.033C20.7382 104.781 22.4952 103.584 24.4141 102.453L22.6861 99.5219C20.6452 100.725 18.7662 102.004 17.0402 103.349L19.1322 106.033ZM30.1555 99.4946C32.0296 98.6525 34.0258 97.8635 36.1508 97.1342L35.046 93.9157C32.8274 94.6772 30.7341 95.5041 28.7608 96.3908L30.1555 99.4946ZM42.3774 95.2696C44.4029 94.7448 46.5266 94.2679 48.7525 93.843L48.1145 90.5006C45.8196 90.9386 43.6239 91.4315 41.5238 91.9757L42.3774 95.2696ZM55.2154 92.798C57.3059 92.5172 59.4752 92.278 61.7258 92.083L61.4321 88.693C59.1305 88.8924 56.908 89.1373 54.7624 89.4255L55.2154 92.798ZM68.2602 91.6538C70.3776 91.557 72.5596 91.4962 74.8079 91.4732L74.7732 88.0707C72.4861 88.094 70.2638 88.1559 68.1047 88.2546L68.2602 91.6538ZM81.3677 91.5111C82.4703 91.5343 83.5876 91.5661 84.7196 91.6065L84.841 88.2059C83.6927 88.1649 82.559 88.1327 81.4395 88.1091L81.3677 91.5111ZM84.7196 91.6065C85.9286 91.6497 87.122 91.685 88.2999 91.7124L88.3792 88.3106C87.2156 88.2834 86.0363 88.2486 84.841 88.2059L84.7196 91.6065ZM95.2141 91.7843C97.6309 91.7769 99.9773 91.7342 102.255 91.6573L102.14 88.2564C99.8987 88.3321 97.5871 88.3743 95.2037 88.3816L95.2141 91.7843ZM109.273 91.299C111.684 91.132 114.01 90.9231 116.255 90.6742L115.88 87.2922C113.684 87.5357 111.404 87.7404 109.038 87.9043L109.273 91.299ZM123.207 89.736C125.615 89.3491 127.918 88.9105 130.119 88.423L129.383 85.1008C127.251 85.5731 125.013 85.9994 122.667 86.3763L123.207 89.736ZM136.959 86.6584C139.328 85.9533 141.559 85.1825 143.66 84.3505L142.407 81.1868C140.404 81.98 138.267 82.7187 135.989 83.3971L136.959 86.6584ZM150.112 81.3977C152.328 80.2298 154.362 78.9789 156.227 77.6532L154.256 74.8797C152.52 76.1138 150.615 77.2863 148.525 78.3874L150.112 81.3977ZM161.753 73.0481C163.538 71.2988 165.101 69.4618 166.463 67.5531L163.693 65.5766C162.447 67.3229 161.014 69.0081 159.372 70.6178L161.753 73.0481ZM170.119 61.3148C171.159 59.1123 171.99 56.8529 172.643 54.5587L169.37 53.6277C168.764 55.756 167.997 57.8393 167.042 59.8612L170.119 61.3148ZM174.106 47.5338C174.434 45.1717 174.613 42.7952 174.676 40.4258L171.274 40.3359C171.214 42.5946 171.044 44.8439 170.735 47.0659L174.106 47.5338ZM174.544 33.3363C174.402 30.9623 174.173 28.6133 173.887 26.3115L170.51 26.7298C170.788 28.9732 171.01 31.2493 171.147 33.5391L174.544 33.3363ZM172.864 19.3655C172.465 16.9867 172.039 14.6843 171.627 12.4927L168.283 13.1213C168.694 15.3085 169.115 17.5836 169.508 19.9276L172.864 19.3655ZM170.37 5.68782C170.166 4.51155 169.984 3.39049 169.832 2.32808L166.464 2.80931C166.622 3.91568 166.81 5.07221 167.018 6.27007L170.37 5.68782Z" fill="#496100"/>
<rect x="31.0126" y="22.9425" width="126.527" height="166.561" rx="9.88496" fill="#496100"/>
<rect x="35.9551" y="29.3677" width="117.137" height="154.2" fill="white"/>
<rect x="80.9317" y="22.4482" width="26.6894" height="9.88496" fill="#202B00"/>
<path d="M88.5582 18H94.5235V22.3018H86.3684L88.5582 18Z" fill="#354602"/>
<path d="M100.489 18H94.5235V22.3018H102.679L100.489 18Z" fill="#354602"/>
<path d="M66.8125 58.9375C66.1875 62.0625 63.8313 65.005 60.525 65.6625C58.9125 65.9836 57.2398 65.7878 55.745 65.103C54.2503 64.4181 53.0097 63.2792 52.1999 61.8482C51.3901 60.4173 51.0524 58.7674 51.2349 57.1333C51.4174 55.4993 52.1108 53.9645 53.2163 52.7475C55.4838 50.25 59.3125 49.5625 62.4375 50.8125" stroke="#354602" stroke-width="1.875" stroke-linecap="round" stroke-linejoin="round"/>
<path d="M56.1875 57.6875L59.3125 60.8125L66.8125 52.6875" stroke="#D1D500" stroke-width="1.875" stroke-linecap="round" stroke-linejoin="round"/>
<rect x="75" y="52.5" width="47" height="4" rx="2" fill="#D1D500"/>
<rect x="75" y="59.5" width="66" height="4" rx="2" fill="#354602"/>
<path d="M66.8125 83.9375C66.1875 87.0625 63.8313 90.005 60.525 90.6625C58.9125 90.9836 57.2398 90.7878 55.745 90.103C54.2503 89.4181 53.0097 88.2792 52.1999 86.8482C51.3901 85.4173 51.0524 83.7674 51.2349 82.1333C51.4174 80.4993 52.1108 78.9645 53.2163 77.7475C55.4838 75.25 59.3125 74.5625 62.4375 75.8125" stroke="#354602" stroke-width="1.875" stroke-linecap="round" stroke-linejoin="round"/>
<path d="M56.1875 82.6875L59.3125 85.8125L66.8125 77.6875" stroke="#D1D500" stroke-width="1.875" stroke-linecap="round" stroke-linejoin="round"/>
<rect x="75" y="77.5" width="47" height="4" rx="2" fill="#D1D500"/>
<rect x="75" y="84.5" width="66" height="4" rx="2" fill="#354602"/>
<path d="M66.8125 108.938C66.1875 112.062 63.8313 115.005 60.525 115.663C58.9125 115.984 57.2398 115.788 55.745 115.103C54.2503 114.418 53.0097 113.279 52.1999 111.848C51.3901 110.417 51.0524 108.767 51.2349 107.133C51.4174 105.499 52.1108 103.965 53.2163 102.748C55.4838 100.25 59.3125 99.5625 62.4375 100.813" stroke="#354602" stroke-width="1.875" stroke-linecap="round" stroke-linejoin="round"/>
<path d="M56.1875 107.688L59.3125 110.812L66.8125 102.688" stroke="#D1D500" stroke-width="1.875" stroke-linecap="round" stroke-linejoin="round"/>
<rect x="75" y="102.5" width="47" height="4" rx="2" fill="#D1D500"/>
<rect x="75" y="109.5" width="66" height="4" rx="2" fill="#354602"/>
<path d="M66.8125 133.937C66.1875 137.062 63.8313 140.005 60.525 140.662C58.9125 140.984 57.2398 140.788 55.745 140.103C54.2503 139.418 53.0097 138.279 52.1999 136.848C51.3901 135.417 51.0524 133.767 51.2349 132.133C51.4174 130.499 52.1108 128.965 53.2163 127.747C55.4838 125.25 59.3125 124.562 62.4375 125.812" stroke="#354602" stroke-width="1.875" stroke-linecap="round" stroke-linejoin="round"/>
<path d="M56.1875 132.688L59.3125 135.812L66.8125 127.688" stroke="#D1D500" stroke-width="1.875" stroke-linecap="round" stroke-linejoin="round"/>
<rect x="75" y="127.5" width="47" height="4" rx="2" fill="#D1D500"/>
<rect x="75" y="134.5" width="66" height="4" rx="2" fill="#354602"/>
<path d="M66.8125 158.937C66.1875 162.062 63.8313 165.005 60.525 165.662C58.9125 165.984 57.2398 165.788 55.745 165.103C54.2503 164.418 53.0097 163.279 52.1999 161.848C51.3901 160.417 51.0524 158.767 51.2349 157.133C51.4174 155.499 52.1108 153.965 53.2163 152.747C55.4838 150.25 59.3125 149.562 62.4375 150.812" stroke="#354602" stroke-width="1.875" stroke-linecap="round" stroke-linejoin="round"/>
<path d="M56.1875 157.688L59.3125 160.812L66.8125 152.688" stroke="#D1D500" stroke-width="1.875" stroke-linecap="round" stroke-linejoin="round"/>
<rect x="75" y="152.5" width="47" height="4" rx="2" fill="#D1D500"/>
<rect x="75" y="159.5" width="66" height="4" rx="2" fill="#354602"/>
</svg>
